<svg width="190" height="410" viewBox="0 0 190 410" fill="none" xmlns="http://www.w3.org/2000/svg">
<path fill-rule="evenodd" clip-rule="evenodd" d="M0.000244052 204.805C0.000244052 147.697 0.000244052 90.5892 0.000853176 33.4807C0.000853176 29.1937 -0.0423946 24.9024 0.486934 20.6367C1.15149 15.2801 2.97582 10.4461 6.92599 6.58789C10.3243 3.26756 14.4791 1.5145 19.0902 0.725073C21.4457 0.321224 23.8231 0.138487 26.2151 0.0982844C30.9894 0.01788 35.7625 -0.00100288 40.5381 0.0684373C42.4111 0.0952388 43.5679 1.39328 43.6464 3.02452C43.711 4.37799 43.7463 5.73634 44.032 7.08677C44.9536 11.4438 48.6784 14.9171 53.2706 15.3751C54.632 15.511 55.9903 15.57 57.3542 15.57C82.3514 15.5707 107.348 15.57 132.345 15.5676C134.245 15.5676 136.14 15.5432 137.995 15.0425C142.551 13.8133 145.568 9.78214 145.794 5.05777C145.836 4.18246 145.873 3.30167 146.004 2.43671C146.202 1.1271 147.13 0.27554 148.439 0.126304C148.971 0.0653917 149.508 0.0288442 150.043 0.0270168C155.208 0.013007 160.376 -0.0771434 165.536 0.175643C169.642 0.376654 173.682 1.02659 177.404 2.90391C183.457 5.95623 187.011 10.9407 188.509 17.4833C189.264 20.7817 189.42 24.1368 189.495 27.4985C189.542 29.5927 189.545 31.6887 189.545 33.7841C189.549 148.245 189.551 262.705 189.552 377.165C189.552 381.16 189.56 385.158 189.065 389.132C188.396 394.488 186.571 399.324 182.622 403.18C179.455 406.271 175.606 408.026 171.315 408.876C167.62 409.609 163.869 409.745 160.116 409.75C148.567 409.766 137.019 409.761 125.471 409.762C94.1392 409.762 62.8077 409.761 31.4755 409.764C27.6252 409.764 23.775 409.726 19.9558 409.175C14.0107 408.316 8.85996 405.961 5.08217 401.101C2.75958 398.113 1.44813 394.688 0.780532 390.997C0.0136448 386.755 0.0154722 382.463 0.0136448 378.176C0.0014623 354.738 0.00633529 331.301 0.00633529 307.863C0.00572617 273.51 0.00633529 239.157 0.00633529 204.805H0.000244052Z" fill="#222"/>
</svg>
